<?xml version="1.0" standalone="no"?>
<!DOCTYPE svg PUBLIC "-//W3C//DTD SVG 20010904//EN"
 "http://www.w3.org/TR/2001/REC-SVG-20010904/DTD/svg10.dtd">
<svg version="1.0" xmlns="http://www.w3.org/2000/svg"
 viewBox="0 0 280.000000 260.000000"
 preserveAspectRatio="xMidYMid meet">
<metadata>
Created by potrace 1.10, written by Peter Selinger 2001-2011
</metadata>
<g transform="translate(0.000000,260.000000) scale(0.100000,-0.100000)"
fill="#000000" stroke="none">
<path d="M2214 1374 c4 -21 8 -43 9 -49 1 -6 -19 -9 -50 -7 -48 4 -53 2 -53
-17 0 -18 6 -21 43 -21 24 0 47 -3 50 -7 4 -3 -5 -22 -20 -41 l-26 -35 39 6
c21 4 44 13 50 22 6 8 24 15 40 15 16 0 46 3 66 6 l37 6 -59 39 c-32 22 -75
58 -95 81 l-38 41 7 -39z"/>
<path d="M1162 1348 c2 -14 10 -23 21 -22 9 0 40 1 67 2 43 2 50 5 50 22 0 18
-7 20 -71 20 -67 0 -70 -1 -67 -22z"/>
<path d="M1360 1350 c0 -18 7 -20 65 -20 58 0 65 2 65 20 0 18 -7 20 -65 20
-58 0 -65 -2 -65 -20z"/>
<path d="M1557 1350 c-5 -19 -1 -20 60 -20 56 0 64 2 61 18 -2 13 -15 18 -59
20 -50 3 -57 0 -62 -18z"/>
<path d="M1740 1344 c0 -21 5 -23 65 -26 57 -3 65 -1 65 15 0 21 -8 24 -77 30
-50 4 -53 3 -53 -19z"/>
<path d="M1013 1353 c-29 -3 -43 -9 -43 -19 0 -11 15 -14 65 -14 58 0 65 2 65
20 0 21 2 21 -87 13z"/>
<path d="M1930 1335 c0 -8 9 -15 19 -15 11 0 21 -4 23 -9 2 -4 22 -10 46 -14
37 -4 42 -3 42 14 0 23 -7 25 -77 33 -42 4 -53 2 -53 -9z"/>
<path d="M837 1330 c-56 -10 -62 -13 -54 -34 5 -12 17 -14 59 -9 62 7 54 3 62
31 8 24 9 24 -67 12z"/>
<path d="M639 1298 c-39 -8 -46 -13 -42 -29 6 -23 41 -25 49 -4 4 9 19 15 40
15 24 0 34 5 34 15 0 17 -13 17 -81 3z"/>
</g>
</svg>
